<?xml version="1.0" encoding="UTF-8" standalone="no"?>
<svg
   xmlns:dc="http://purl.org/dc/elements/1.1/"
   xmlns:cc="http://creativecommons.org/ns#"
   xmlns:rdf="http://www.w3.org/1999/02/22-rdf-syntax-ns#"
   xmlns:svg="http://www.w3.org/2000/svg"
   xmlns="http://www.w3.org/2000/svg"
   xmlns:sodipodi="http://sodipodi.sourceforge.net/DTD/sodipodi-0.dtd"
   xmlns:inkscape="http://www.inkscape.org/namespaces/inkscape"
   width="512"
   height="512"
   viewBox="0 0 409.6 409.6"
   version="1.1"
   id="svg2"
   inkscape:version="0.48.2 r9819"
   sodipodi:docname="Pharmacy_Green_Cross.svg"
   inkscape:export-filename="C:\Documents and Settings\Keith\My Documents\iPharmD.net\images\index\www svgs\Pharmacy_Green_Cross.png"
   inkscape:export-xdpi="90.708664"
   inkscape:export-ydpi="90.708664">
  <title
     id="title3821">Pharmacy Green Cross</title>
  <metadata
     id="metadata72">
    <rdf:RDF>
      <cc:Work
         rdf:about="">
        <dc:format>image/svg+xml</dc:format>
        <dc:type
           rdf:resource="http://purl.org/dc/dcmitype/StillImage" />
        <dc:title>Pharmacy Green Cross</dc:title>
        <cc:license
           rdf:resource="http://creativecommons.org/licenses/by-nc-nd/3.0/" />
        <dc:creator>
          <cc:Agent>
            <dc:title>www.ipharmd.net</dc:title>
          </cc:Agent>
        </dc:creator>
        <dc:coverage></dc:coverage>
        <dc:subject>
          <rdf:Bag>
            <rdf:li>pharmacy</rdf:li>
            <rdf:li>drug</rdf:li>
            <rdf:li>store</rdf:li>
            <rdf:li>pharmacist</rdf:li>
            <rdf:li>rx</rdf:li>
            <rdf:li>prescription</rdf:li>
          </rdf:Bag>
        </dc:subject>
        <dc:description>pharmacy green cross symbol that is utilized internationally</dc:description>
      </cc:Work>
      <cc:License
         rdf:about="http://creativecommons.org/licenses/by-nc-nd/3.0/">
        <cc:permits
           rdf:resource="http://creativecommons.org/ns#Reproduction" />
        <cc:permits
           rdf:resource="http://creativecommons.org/ns#Distribution" />
        <cc:requires
           rdf:resource="http://creativecommons.org/ns#Notice" />
        <cc:requires
           rdf:resource="http://creativecommons.org/ns#Attribution" />
        <cc:prohibits
           rdf:resource="http://creativecommons.org/ns#CommercialUse" />
      </cc:License>
    </rdf:RDF>
  </metadata>
  <sodipodi:namedview
     pagecolor="#ffffff"
     bordercolor="#666666"
     borderopacity="1"
     objecttolerance="10"
     gridtolerance="10"
     guidetolerance="10"
     inkscape:pageopacity="0"
     inkscape:pageshadow="2"
     inkscape:window-width="1280"
     inkscape:window-height="953"
     showgrid="false"
     inkscape:zoom="0.5792382"
     inkscape:cx="115.6807"
     inkscape:cy="133.76443"
     inkscape:window-x="-4"
     inkscape:window-y="-4"
     inkscape:window-maximized="1"
     inkscape:current-layer="svg2"
     fit-margin-top="0"
     fit-margin-left="0"
     fit-margin-right="0"
     fit-margin-bottom="0" />
  <defs
     id="defs4" />
  <g
     id="surface0"
     clip-path="url(#clip0)"
     transform="matrix(2.0790864,0,0,2.0685898,-39.490598,-39.293003)"
     inkscape:export-xdpi="90.708664"
     inkscape:export-ydpi="90.708664"
     inkscape:export-filename="C:\Documents and Settings\Keith\My Documents\iPharmD.net\images\index\www svgs\surface10.png">
    <path
       style="fill:#007f00;fill-rule:nonzero;stroke:none"
       d="m 81.003754,19.007889 c 24.330676,-0.01828 48.660786,-0.0153 72.992536,-0.0018 0.01,20.663162 -0.003,41.325439 0.007,61.989136 20.662,0.01141 41.32385,-0.0018 61.98785,0.0085 0.0184,24.664245 0.0144,49.327965 0.003,73.993275 -20.66462,0.007 -41.32706,-0.003 -61.98969,0.007 -0.0127,20.66216 5.5e-4,41.32418 -0.009,61.98833 -24.33176,0.0172 -48.66184,0.0142 -72.992542,0.002 -0.01091,-20.66445 0.0022,-41.32671 -0.0074,-61.98914 -20.663269,-0.0127 -41.325119,5.2e-4 -61.987854,-0.009 -0.0195,-24.66533 -0.01538,-49.32898 -0.0029,-73.993272 20.663345,-0.0087 41.325805,0.0022 61.989685,-0.0068 0.01143,-20.663437 -0.0018,-41.325424 0.0085,-61.988327 z m 0,0"
       id="path20"
       inkscape:connector-curvature="0" />
    <path
       style="fill:none;stroke:#c5f5bd;stroke-width:0.1;stroke-linecap:butt;stroke-linejoin:miter;stroke-miterlimit:10"
       d="m 87.004944,25.001022 c 1.497604,-1.22e-4 4.492798,-3.81e-4 5.990402,-5.18e-4 -0.01083,22.387832 0.08272,44.775283 -0.0842,67.163299 C 90.97876,90.377396 89.049683,88.591614 87.120407,86.808655 86.914993,66.20607 87.004547,45.603638 87.004944,25.001022 z m 0,0"
       id="path22"
       inkscape:connector-curvature="0" />
    <path
       style="fill:#c5f5bd;fill-rule:nonzero;stroke:none"
       d="m 87.004944,25.001022 c 1.497604,-1.22e-4 4.492798,-3.81e-4 5.990402,-5.18e-4 -0.01083,22.387832 0.08272,44.775283 -0.0842,67.163299 C 90.97876,90.377396 89.049683,88.591614 87.120407,86.808655 86.914993,66.20607 87.004547,45.603638 87.004944,25.001022 z m 0,0"
       id="path24"
       inkscape:connector-curvature="0" />
    <path
       style="fill:none;stroke:#c5f5bd;stroke-width:0.1;stroke-linecap:butt;stroke-linejoin:miter;stroke-miterlimit:10"
       d="m 99.006897,25.002304 c 1.496723,-5.64e-4 4.490163,-0.0017 5.986893,-0.0023 -0.0234,26.388901 0.0981,52.777573 -0.0709,79.166616 -1.93616,-1.78556 -3.86693,-3.57227 -5.798617,-5.354894 C 98.889908,74.208725 99.01944,49.605484 99.006897,25.002304 z m 0,0"
       id="path26"
       inkscape:connector-curvature="0" />
    <path
       style="fill:#c5f5bd;fill-rule:nonzero;stroke:none"
       d="m 99.006897,25.002304 c 1.496723,-5.64e-4 4.490163,-0.0017 5.986893,-0.0023 -0.0234,26.388901 0.0981,52.777573 -0.0709,79.166616 -1.93616,-1.78556 -3.86693,-3.57227 -5.798617,-5.354894 C 98.889908,74.208725 99.01944,49.605484 99.006897,25.002304 z m 0,0"
       id="path28"
       inkscape:connector-curvature="0" />
    <path
       style="fill:none;stroke:#c5f5bd;stroke-width:0.1;stroke-linecap:butt;stroke-linejoin:miter;stroke-miterlimit:10"
       d="m 111.00458,25.000702 c 1.49841,4.6e-5 4.49521,1.37e-4 5.9936,1.83e-4 -0.0389,30.386032 0.11229,60.771744 -0.10078,91.157825 -1.9268,-1.78537 -3.85162,-3.56783 -5.7737,-5.34967 -0.25274,-28.602665 -0.0829,-57.205494 -0.11912,-85.808338 z m 0,0"
       id="path30"
       inkscape:connector-curvature="0" />
    <path
       style="fill:#c5f5bd;fill-rule:nonzero;stroke:none"
       d="m 111.00458,25.000702 c 1.49841,4.6e-5 4.49521,1.37e-4 5.9936,1.83e-4 -0.0389,30.386032 0.11229,60.771744 -0.10078,91.157825 -1.9268,-1.78537 -3.85162,-3.56783 -5.7737,-5.34967 -0.25274,-28.602665 -0.0829,-57.205494 -0.11912,-85.808338 z m 0,0"
       id="path32"
       inkscape:connector-curvature="0" />
    <path
       style="fill:none;stroke:#c5f5bd;stroke-width:0.1;stroke-linecap:butt;stroke-linejoin:miter;stroke-miterlimit:10"
       d="m 148.19134,87.120407 c 20.60132,-0.205414 41.20376,-0.11586 61.80764,-0.115463 1.2e-4,1.497604 3.8e-4,4.492798 5.2e-4,5.990402 -22.38901,-0.01083 -44.77645,0.08272 -67.1633,-0.0842 1.7821,-1.932388 3.56791,-3.861465 5.35514,-5.790741 z m 0,0"
       id="path34"
       inkscape:connector-curvature="0" />
    <path
       style="fill:#c5f5bd;fill-rule:nonzero;stroke:none"
       d="m 148.19134,87.120407 c 20.60132,-0.205414 41.20376,-0.11586 61.80764,-0.115463 1.2e-4,1.497604 3.8e-4,4.492798 5.2e-4,5.990402 -22.38901,-0.01083 -44.77645,0.08272 -67.1633,-0.0842 1.7821,-1.932388 3.56791,-3.861465 5.35514,-5.790741 z m 0,0"
       id="path36"
       inkscape:connector-curvature="0" />
    <path
       style="fill:none;stroke:#c5f5bd;stroke-width:0.1;stroke-linecap:butt;stroke-linejoin:miter;stroke-miterlimit:10"
       d="m 136.18826,99.124283 c 24.60192,-0.234375 49.20523,-0.104843 73.80944,-0.117386 5.6e-4,1.496723 0.002,4.490163 0.002,5.986893 -26.3899,-0.0234 -52.77853,0.0981 -79.16661,-0.0709 1.78124,-1.93616 3.568,-3.86693 5.35489,-5.798617 z m 0,0"
       id="path38"
       inkscape:connector-curvature="0" />
    <path
       style="fill:#c5f5bd;fill-rule:nonzero;stroke:none"
       d="m 136.18826,99.124283 c 24.60192,-0.234375 49.20523,-0.104843 73.80944,-0.117386 5.6e-4,1.496723 0.002,4.490163 0.002,5.986893 -26.3899,-0.0234 -52.77853,0.0981 -79.16661,-0.0709 1.78124,-1.93616 3.568,-3.86693 5.35489,-5.798617 z m 0,0"
       id="path40"
       inkscape:connector-curvature="0" />
    <path
       style="fill:none;stroke:#c5f5bd;stroke-width:0.1;stroke-linecap:butt;stroke-linejoin:miter;stroke-miterlimit:10"
       d="m 124.19096,111.1237 c 28.60175,-0.25274 57.20458,-0.0829 85.80834,-0.11912 -5e-5,1.49841 -1.4e-4,4.49521 -1.9e-4,5.9936 -30.38688,-0.0389 -60.77259,0.11229 -91.15782,-0.10078 1.78109,-1.9268 3.56353,-3.85162 5.34967,-5.7737 z m 0,0"
       id="path42"
       inkscape:connector-curvature="0" />
    <path
       style="fill:#c5f5bd;fill-rule:nonzero;stroke:none"
       d="m 124.19096,111.1237 c 28.60175,-0.25274 57.20458,-0.0829 85.80834,-0.11912 -5e-5,1.49841 -1.4e-4,4.49521 -1.9e-4,5.9936 -30.38688,-0.0389 -60.77259,0.11229 -91.15782,-0.10078 1.78109,-1.9268 3.56353,-3.85162 5.34967,-5.7737 z m 0,0"
       id="path44"
       inkscape:connector-curvature="0" />
    <path
       style="fill:none;stroke:#c5f5bd;stroke-width:0.1;stroke-linecap:butt;stroke-linejoin:miter;stroke-miterlimit:10"
       d="m 25.000885,119.00182 c 30.386032,0.0381 60.771744,-0.11315 91.157825,0.10078 -1.78537,1.92249 -3.56783,3.84731 -5.34967,5.7737 -28.602665,0.25183 -57.205494,0.082 -85.808338,0.11912 4.6e-5,-1.49841 1.37e-4,-4.49521 1.83e-4,-5.9936 z m 0,0"
       id="path46"
       inkscape:connector-curvature="0" />
    <path
       style="fill:#c5f5bd;fill-rule:nonzero;stroke:none"
       d="m 25.000885,119.00182 c 30.386032,0.0381 60.771744,-0.11315 91.157825,0.10078 -1.78537,1.92249 -3.56783,3.84731 -5.34967,5.7737 -28.602665,0.25183 -57.205494,0.082 -85.808338,0.11912 4.6e-5,-1.49841 1.37e-4,-4.49521 1.83e-4,-5.9936 z m 0,0"
       id="path48"
       inkscape:connector-curvature="0" />
    <path
       style="fill:none;stroke:#c5f5bd;stroke-width:0.1;stroke-linecap:butt;stroke-linejoin:miter;stroke-miterlimit:10"
       d="m 118.06104,119.89313 c 1.94152,1.75609 3.87982,3.52411 5.82607,5.28384 0.23023,28.60654 0.0753,57.2139 0.10828,85.82233 -1.4983,-5e-5 -4.4949,-1.4e-4 -5.99319,-1.9e-4 0.0181,-30.36964 -0.0677,-60.73771 0.0588,-91.10598 z m 0,0"
       id="path50"
       inkscape:connector-curvature="0" />
    <path
       style="fill:#c5f5bd;fill-rule:nonzero;stroke:none"
       d="m 118.06104,119.89313 c 1.94152,1.75609 3.87982,3.52411 5.82607,5.28384 0.23023,28.60654 0.0753,57.2139 0.10828,85.82233 -1.4983,-5e-5 -4.4949,-1.4e-4 -5.99319,-1.9e-4 0.0181,-30.36964 -0.0677,-60.73771 0.0588,-91.10598 z m 0,0"
       id="path52"
       inkscape:connector-curvature="0" />
    <path
       style="fill:none;stroke:#c5f5bd;stroke-width:0.1;stroke-linecap:butt;stroke-linejoin:miter;stroke-miterlimit:10"
       d="m 25.000015,131.00621 c 26.388901,0.0223 52.777573,-0.0991 79.166615,0.0709 -1.78556,1.93183 -3.57227,3.86264 -5.354893,5.79862 -24.603012,0.23329 -49.206253,0.1038 -73.809433,0.11738 -5.64e-4,-1.49672 -0.0017,-4.49016 -0.0023,-5.98689 z m 0,0"
       id="path54"
       inkscape:connector-curvature="0" />
    <path
       style="fill:#c5f5bd;fill-rule:nonzero;stroke:none"
       d="m 25.000015,131.00621 c 26.388901,0.0223 52.777573,-0.0991 79.166615,0.0709 -1.78556,1.93183 -3.57227,3.86264 -5.354893,5.79862 -24.603012,0.23329 -49.206253,0.1038 -73.809433,0.11738 -5.64e-4,-1.49672 -0.0017,-4.49016 -0.0023,-5.98689 z m 0,0"
       id="path56"
       inkscape:connector-curvature="0" />
    <path
       style="fill:none;stroke:#c5f5bd;stroke-width:0.1;stroke-linecap:butt;stroke-linejoin:miter;stroke-miterlimit:10"
       d="m 130.04466,131.89098 c 1.94567,1.75622 3.89054,3.52264 5.84068,5.28363 0.21659,24.60658 0.0952,49.21431 0.1083,73.82309 -1.49678,5.6e-4 -4.49036,0.002 -5.98714,0.002 0.004,-26.37075 -0.0594,-52.73982 0.0382,-79.109 z m 0,0"
       id="path58"
       inkscape:connector-curvature="0" />
    <path
       style="fill:#c5f5bd;fill-rule:nonzero;stroke:none"
       d="m 130.04466,131.89098 c 1.94567,1.75622 3.89054,3.52264 5.84068,5.28363 0.21659,24.60658 0.0952,49.21431 0.1083,73.82309 -1.49678,5.6e-4 -4.49036,0.002 -5.98714,0.002 0.004,-26.37075 -0.0594,-52.73982 0.0382,-79.109 z m 0,0"
       id="path60"
       inkscape:connector-curvature="0" />
    <path
       style="fill:none;stroke:#c5f5bd;stroke-width:0.1;stroke-linecap:butt;stroke-linejoin:miter;stroke-miterlimit:10"
       d="m 25.000504,143.00465 c 22.387832,0.01 44.775283,-0.0839 67.163299,0.0842 -1.786407,1.92806 -3.572189,3.85718 -5.355148,5.79074 -20.602585,0.20415 -41.205017,0.1146 -61.807633,0.11547 -1.22e-4,-1.49761 -3.81e-4,-4.4928 -5.18e-4,-5.99041 z m 0,0"
       id="path62"
       inkscape:connector-curvature="0" />
    <path
       style="fill:#c5f5bd;fill-rule:nonzero;stroke:none"
       d="m 25.000504,143.00465 c 22.387832,0.01 44.775283,-0.0839 67.163299,0.0842 -1.786407,1.92806 -3.572189,3.85718 -5.355148,5.79074 -20.602585,0.20415 -41.205017,0.1146 -61.807633,0.11547 -1.22e-4,-1.49761 -3.81e-4,-4.4928 -5.18e-4,-5.99041 z m 0,0"
       id="path64"
       inkscape:connector-curvature="0" />
    <path
       style="fill:none;stroke:#c5f5bd;stroke-width:0.1;stroke-linecap:butt;stroke-linejoin:miter;stroke-miterlimit:10"
       d="m 142.05269,143.89168 c 1.94311,1.75795 3.88803,3.52408 5.83697,5.28618 0.18665,20.60592 0.10674,41.21273 0.10535,61.82113 -1.49785,1.2e-4 -4.49356,3.8e-4 -5.99141,5.1e-4 0.003,-22.37053 -0.0519,-44.7392 0.0491,-67.10782 z m 0,0"
       id="path66"
       inkscape:connector-curvature="0" />
    <path
       style="fill:#c5f5bd;fill-rule:nonzero;stroke:none"
       d="m 142.05269,143.89168 c 1.94311,1.75795 3.88803,3.52408 5.83697,5.28618 0.18665,20.60592 0.10674,41.21273 0.10535,61.82113 -1.49785,1.2e-4 -4.49356,3.8e-4 -5.99141,5.1e-4 0.003,-22.37053 -0.0519,-44.7392 0.0491,-67.10782 z m 0,0"
       id="path68"
       inkscape:connector-curvature="0" />
  </g>
</svg>
